<svg xmlns="http://www.w3.org/2000/svg" xmlns:xlink="http://www.w3.org/1999/xlink" width="500" zoomAndPan="magnify" viewBox="0 0 375 374.999991" height="500" preserveAspectRatio="xMidYMid meet" version="1.0"><defs><clipPath id="1fbad568e7"><path d="M 28.925781 3.378906 L 346.175781 3.378906 L 346.175781 371.628906 L 28.925781 371.628906 Z M 28.925781 3.378906 " clip-rule="nonzero"/></clipPath></defs><g clip-path="url(#1fbad568e7)"><path fill="#ffffff" d="M 346.144531 161.964844 C 346.144531 249.539062 275.113281 320.550781 187.554688 320.550781 C 167.621094 320.550781 148.550781 316.878906 130.964844 310.15625 L 130.964844 280.183594 C 135.847656 281.96875 140.863281 283.070312 145.875 283.617188 C 146.429688 283.703125 147.023438 283.746094 147.617188 283.789062 C 171.703125 285.703125 195.882812 274.066406 208.875 251.851562 L 252.386719 177.234375 C 258.375 166.953125 261.222656 155.742188 261.222656 144.65625 C 261.222656 122.398438 249.710938 100.695312 229.105469 88.636719 C 211.515625 78.355469 191.035156 77.339844 173.363281 84.050781 C 173.320312 84.050781 173.28125 84.09375 173.234375 84.09375 C 159.9375 89.191406 148.214844 98.699219 140.480469 111.953125 L 137.339844 117.347656 C 138.191406 117.515625 173.066406 137.730469 173.066406 137.730469 C 174.808594 140.367188 175.023438 143.890625 173.320312 146.777344 C 170.941406 150.894531 165.585938 152.296875 161.46875 149.917969 C 150.71875 143.703125 129.230469 131.269531 129.230469 131.269531 L 123.375 141.214844 C 123.375 141.214844 144.890625 153.703125 155.644531 159.945312 C 159.765625 162.324219 161.164062 167.632812 158.789062 171.792969 C 157.425781 174.128906 155.175781 175.53125 152.757812 175.957031 C 150.84375 176.34375 148.765625 176 146.976562 174.933594 L 115.410156 156.632812 L 112.054688 162.40625 L 109.589844 166.617188 L 141.152344 184.917969 C 145.277344 187.296875 146.675781 192.605469 144.300781 196.726562 C 143.664062 197.789062 142.855469 198.679688 141.921875 199.355469 C 139.199219 201.3125 135.503906 201.652344 132.441406 199.867188 L 100.878906 181.5625 L 97.988281 186.535156 C 83.585938 211.339844 87.453125 241.703125 105.464844 262.089844 C 105.59375 260.816406 105.890625 259.628906 106.355469 258.4375 C 107.886719 254.363281 111.285156 251.09375 115.277344 249.6875 C 119.269531 248.246094 123.777344 248.714844 127.007812 250.921875 C 108.441406 249.394531 109.375 263.578125 109.375 263.578125 L 109.375 299.980469 C 109.15625 299.859375 108.945312 299.738281 108.734375 299.617188 C 109.160156 300.503906 28.910156 371.605469 28.910156 371.605469 L 28.910156 162.007812 C 28.910156 101.527344 62.769531 48.992188 112.558594 22.238281 L 134.140625 12.59375 C 150.796875 6.605469 168.765625 3.378906 187.503906 3.378906 C 275.109375 3.378906 346.144531 74.390625 346.144531 161.964844 Z M 346.144531 161.964844 " fill-opacity="1" fill-rule="nonzero"/></g></svg>